<svg xmlns="http://www.w3.org/2000/svg" viewBox="0 0 800 500" role="img" aria-label="校园二手交易平台界面插画">
  <defs>
    <linearGradient id="t1" x1="0" y1="0" x2="1" y2="1">
      <stop offset="0" stop-color="#17b3a3"/>
      <stop offset="1" stop-color="#0c8f83"/>
    </linearGradient>
  </defs>
  <rect width="800" height="500" fill="#eef7f4"/>
  <circle cx="740" cy="60" r="120" fill="#d5ece6" opacity=".6"/>
  <circle cx="40" cy="470" r="90" fill="#d5ece6" opacity=".5"/>

  <!-- 顶栏与搜索 -->
  <rect x="88" y="44" width="430" height="42" rx="21" fill="#ffffff" stroke="#d8e8e3"/>
  <circle cx="116" cy="65" r="8" fill="none" stroke="#9cc9bf" stroke-width="3"/>
  <line x1="122" y1="71" x2="130" y2="79" stroke="#9cc9bf" stroke-width="3" stroke-linecap="round"/>
  <rect x="146" y="60" width="180" height="10" rx="5" fill="#ddeae6"/>
  <rect x="538" y="44" width="120" height="42" rx="21" fill="url(#t1)"/>
  <rect x="566" y="60" width="64" height="10" rx="5" fill="#ffffff" opacity=".85"/>

  <!-- 商品卡片网格 -->
  <g>
    <rect x="88" y="128" width="184" height="152" rx="14" fill="#ffffff" stroke="#dce9e5"/>
    <rect x="104" y="142" width="152" height="78" rx="10" fill="#d8efe9"/>
    <circle cx="140" cy="172" r="12" fill="#9fd8cd"/>
    <path d="M112 210l36-26 30 20 34-24 32 30z" fill="#b8e3da"/>
    <rect x="104" y="232" width="100" height="9" rx="4.5" fill="#c7d8d3"/>
    <rect x="104" y="250" width="52" height="12" rx="6" fill="url(#t1)"/>
  </g>
  <g>
    <rect x="298" y="124" width="184" height="152" rx="14" fill="#ffffff" stroke="#0c8f83" stroke-width="2.5"/>
    <rect x="418" y="116" width="56" height="20" rx="10" fill="url(#t1)"/>
    <rect x="314" y="138" width="152" height="78" rx="10" fill="#d8efe9"/>
    <circle cx="350" cy="168" r="12" fill="#9fd8cd"/>
    <path d="M322 206l36-26 30 20 34-24 32 30z" fill="#b8e3da"/>
    <rect x="314" y="228" width="110" height="9" rx="4.5" fill="#c7d8d3"/>
    <rect x="314" y="246" width="52" height="12" rx="6" fill="url(#t1)"/>
  </g>
  <g>
    <rect x="508" y="128" width="184" height="152" rx="14" fill="#ffffff" stroke="#dce9e5"/>
    <rect x="524" y="142" width="152" height="78" rx="10" fill="#d8efe9"/>
    <circle cx="560" cy="172" r="12" fill="#9fd8cd"/>
    <path d="M532 210l36-26 30 20 34-24 32 30z" fill="#b8e3da"/>
    <rect x="524" y="232" width="90" height="9" rx="4.5" fill="#c7d8d3"/>
    <rect x="524" y="250" width="52" height="12" rx="6" fill="url(#t1)"/>
  </g>
  <g>
    <rect x="88" y="308" width="184" height="152" rx="14" fill="#ffffff" stroke="#dce9e5"/>
    <rect x="104" y="322" width="152" height="78" rx="10" fill="#d8efe9"/>
    <circle cx="140" cy="352" r="12" fill="#9fd8cd"/>
    <path d="M112 390l36-26 30 20 34-24 32 30z" fill="#b8e3da"/>
    <rect x="104" y="412" width="110" height="9" rx="4.5" fill="#c7d8d3"/>
    <rect x="104" y="430" width="52" height="12" rx="6" fill="url(#t1)"/>
  </g>
  <g>
    <rect x="298" y="308" width="184" height="152" rx="14" fill="#ffffff" stroke="#dce9e5"/>
    <rect x="314" y="322" width="152" height="78" rx="10" fill="#d8efe9"/>
    <circle cx="350" cy="352" r="12" fill="#9fd8cd"/>
    <path d="M322 390l36-26 30 20 34-24 32 30z" fill="#b8e3da"/>
    <rect x="314" y="412" width="96" height="9" rx="4.5" fill="#c7d8d3"/>
    <rect x="314" y="430" width="52" height="12" rx="6" fill="url(#t1)"/>
  </g>
  <g>
    <rect x="508" y="308" width="184" height="152" rx="14" fill="#ffffff" stroke="#dce9e5"/>
    <rect x="524" y="322" width="152" height="78" rx="10" fill="#d8efe9"/>
    <circle cx="560" cy="352" r="12" fill="#9fd8cd"/>
    <path d="M532 390l36-26 30 20 34-24 32 30z" fill="#b8e3da"/>
    <rect x="524" y="412" width="104" height="9" rx="4.5" fill="#c7d8d3"/>
    <rect x="524" y="430" width="52" height="12" rx="6" fill="url(#t1)"/>
  </g>
</svg>
